HIERARCHY
ROOT hip
{
  OFFSET 0.00112043 5.09927 -9.65472
  CHANNELS 6 Xposition Yposition Zposition Zrotation Xrotation Yrotation
  JOINT abdomen
  {
    OFFSET 0 -1.186 -1.5018
    CHANNELS 3 Zrotation Xrotation Yrotation
    JOINT abdomen2
    {
      OFFSET 0 9.964 0.2134
      CHANNELS 3 Zrotation Xrotation Yrotation
      JOINT chest
      {
        OFFSET 0 13.134 -3.2573
        CHANNELS 3 Zrotation Xrotation Yrotation
        JOINT neck
        {
          OFFSET 0 20.686 -1.6905
          CHANNELS 3 Zrotation Xrotation Yrotation
          JOINT head
          {
            OFFSET 0 7.238 -0.1237
            CHANNELS 3 Zrotation Xrotation Yrotation
            End Site
            {
              OFFSET 0 0 0
            }
          }
        }
        JOINT lCollar
        {
          OFFSET 1.7069 20.075 5.0056
          CHANNELS 3 Zrotation Xrotation Yrotation
          JOINT lShldr
          {
            OFFSET 13.6458 -0.047 -4.849
            CHANNELS 3 Zrotation Xrotation Yrotation
            JOINT lForeArm
            {
              OFFSET 28.3255 -0.9759 2.2888
              CHANNELS 3 Zrotation Xrotation Yrotation
              JOINT lHand
              {
                OFFSET 22.1583 -0.53 10.8316
                CHANNELS 3 Zrotation Xrotation Yrotation
                JOINT lThumb1
                {
                  OFFSET 0.786 0.112 2.5817
                  CHANNELS 3 Zrotation Xrotation Yrotation
                  JOINT lThumb2
                  {
                    OFFSET 0.3601 -0.878 4.2331
                    CHANNELS 3 Zrotation Xrotation Yrotation
                    JOINT lThumb2_End
                    {
                      OFFSET 1.8127 -1.216 2.2227
                      CHANNELS 3 Zrotation Xrotation Yrotation
                      End Site
                      {
                        OFFSET 0.0181 -0.0122 0.0222
                      }
                    }
                  }
                }
                JOINT lCarpal1
                {
                  OFFSET 0.9571 1.114 1.7695
                  CHANNELS 3 Zrotation Xrotation Yrotation
                  JOINT lIndex1
                  {
                    OFFSET 4.1246 0.487 4.1451
                    CHANNELS 3 Zrotation Xrotation Yrotation
                    JOINT lIndex2
                    {
                      OFFSET 3.4052 -1.454 2.7682
                      CHANNELS 3 Zrotation Xrotation Yrotation
                      JOINT lIndex2_End
                      {
                        OFFSET 1.4531 -1.795 1.2713
                        CHANNELS 3 Zrotation Xrotation Yrotation
                        End Site
                        {
                          OFFSET 0.0145 -0.0179 0.0127
                        }
                      }
                    }
                  }
                  JOINT lMid1
                  {
                    OFFSET 5.6954 0.21 2.1184
                    CHANNELS 3 Zrotation Xrotation Yrotation
                    JOINT lMid2
                    {
                      OFFSET 3.9766 -1.54 2.3863
                      CHANNELS 3 Zrotation Xrotation Yrotation
                      JOINT lMid2_End
                      {
                        OFFSET 1.4042 -1.926 1.125
                        CHANNELS 3 Zrotation Xrotation Yrotation
                        End Site
                        {
                          OFFSET 0.014 -0.0193 0.0113
                        }
                      }
                    }
                  }
                }
                JOINT lCarpal2
                {
                  OFFSET 2.0956 0.66 -0.3894
                  CHANNELS 3 Zrotation Xrotation Yrotation
                  JOINT lRing1
                  {
                    OFFSET 5.0395 -0.09 2.4971
                    CHANNELS 3 Zrotation Xrotation Yrotation
                    JOINT lRing2
                    {
                      OFFSET 3.7921 -1.552 1.4806
                      CHANNELS 3 Zrotation Xrotation Yrotation
                      JOINT lRing2_End
                      {
                        OFFSET 1.4655 -1.808 0.9609
                        CHANNELS 3 Zrotation Xrotation Yrotation
                        End Site
                        {
                          OFFSET 0.0147 -0.0181 0.0096
                        }
                      }
                    }
                  }
                  JOINT lPinky1
                  {
                    OFFSET 4.9141 -1.269 0.3591
                    CHANNELS 3 Zrotation Xrotation Yrotation
                    JOINT lPinky2
                    {
                      OFFSET 3.1477 -1.685 0.8462
                      CHANNELS 3 Zrotation Xrotation Yrotation
                      JOINT lPinky2_End
                      {
                        OFFSET 0.8055 -1.585 0.7955
                        CHANNELS 3 Zrotation Xrotation Yrotation
                        End Site
                        {
                          OFFSET 0.0081 -0.0158 0.008
                        }
                      }
                    }
                  }
                }
              }
            }
          }
        }
        JOINT rCollar
        {
          OFFSET -1.7069 20.075 5.0056
          CHANNELS 3 Zrotation Xrotation Yrotation
          JOINT rShldr
          {
            OFFSET -13.6458 -0.047 -4.849
            CHANNELS 3 Zrotation Xrotation Yrotation
            JOINT rForeArm
            {
              OFFSET -28.3255 -0.9759 2.2888
              CHANNELS 3 Zrotation Xrotation Yrotation
              JOINT rHand
              {
                OFFSET -22.1583 -0.53 10.8316
                CHANNELS 3 Zrotation Xrotation Yrotation
                JOINT rThumb1
                {
                  OFFSET -0.786 0.112 2.5817
                  CHANNELS 3 Zrotation Xrotation Yrotation
                  JOINT rThumb2
                  {
                    OFFSET -0.3601 -0.878 4.2331
                    CHANNELS 3 Zrotation Xrotation Yrotation
                    JOINT rThumb2_End
                    {
                      OFFSET -1.8127 -1.216 2.2227
                      CHANNELS 3 Zrotation Xrotation Yrotation
                      End Site
                      {
                        OFFSET -0.0181 -0.0122 0.0222
                      }
                    }
                  }
                }
                JOINT rCarpal1
                {
                  OFFSET -0.9571 1.114 1.7695
                  CHANNELS 3 Zrotation Xrotation Yrotation
                  JOINT rIndex1
                  {
                    OFFSET -4.1246 0.487 4.1451
                    CHANNELS 3 Zrotation Xrotation Yrotation
                    JOINT rIndex2
                    {
                      OFFSET -3.4052 -1.454 2.7682
                      CHANNELS 3 Zrotation Xrotation Yrotation
                      JOINT rIndex2_End
                      {
                        OFFSET -1.4531 -1.795 1.2713
                        CHANNELS 3 Zrotation Xrotation Yrotation
                        End Site
                        {
                          OFFSET -0.0145 -0.018 0.0127
                        }
                      }
                    }
                  }
                  JOINT rMid1
                  {
                    OFFSET -5.6954 0.21 2.1184
                    CHANNELS 3 Zrotation Xrotation Yrotation
                    JOINT rMid2
                    {
                      OFFSET -3.9766 -1.54 2.3863
                      CHANNELS 3 Zrotation Xrotation Yrotation
                      JOINT rMid2_End
                      {
                        OFFSET -1.4042 -1.926 1.125
                        CHANNELS 3 Zrotation Xrotation Yrotation
                        End Site
                        {
                          OFFSET -0.014 -0.0193 0.0113
                        }
                      }
                    }
                  }
                }
                JOINT rCarpal2
                {
                  OFFSET -2.0956 0.66 -0.3894
                  CHANNELS 3 Zrotation Xrotation Yrotation
                  JOINT rRing1
                  {
                    OFFSET -5.0395 -0.09 2.4971
                    CHANNELS 3 Zrotation Xrotation Yrotation
                    JOINT rRing2
                    {
                      OFFSET -3.7921 -1.552 1.4806
                      CHANNELS 3 Zrotation Xrotation Yrotation
                      JOINT rRing2_End
                      {
                        OFFSET -1.4655 -1.808 0.9609
                        CHANNELS 3 Zrotation Xrotation Yrotation
                        End Site
                        {
                          OFFSET -0.0147 -0.0181 0.0096
                        }
                      }
                    }
                  }
                  JOINT rPinky1
                  {
                    OFFSET -4.9141 -1.269 0.3592
                    CHANNELS 3 Zrotation Xrotation Yrotation
                    JOINT rPinky2
                    {
                      OFFSET -3.1477 -1.685 0.8462
                      CHANNELS 3 Zrotation Xrotation Yrotation
                      JOINT rPinky2_End
                      {
                        OFFSET -0.8055 -1.585 0.7955
                        CHANNELS 3 Zrotation Xrotation Yrotation
                        End Site
                        {
                          OFFSET -0.0081 -0.0158 0.008
                        }
                      }
                    }
                  }
                }
              }
            }
          }
        }
      }
    }
  }
  JOINT lThigh
  {
    OFFSET 8.367 -8.2066 0.5982
    CHANNELS 3 Zrotation Xrotation Yrotation
    JOINT lShin
    {
      OFFSET 2.1923 -43.463 -0.4932
      CHANNELS 3 Zrotation Xrotation Yrotation
      JOINT lFoot
      {
        OFFSET 0.7333 -45.8593 -2.6451
        CHANNELS 3 Zrotation Xrotation Yrotation
        End Site
        {
          OFFSET 2.6618 -4.2699 12.3931
        }
      }
    }
  }
  JOINT rThigh
  {
    OFFSET -8.367 -8.2066 0.5982
    CHANNELS 3 Zrotation Xrotation Yrotation
    JOINT rShin
    {
      OFFSET -2.1923 -43.463 -0.4931
      CHANNELS 3 Zrotation Xrotation Yrotation
      JOINT rFoot
      {
        OFFSET -0.7333 -45.8593 -2.6451
        CHANNELS 3 Zrotation Xrotation Yrotation
        End Site
        {
          OFFSET -2.6618 -4.2699 12.3931
        }
      }
    }
  }
}
MOTION
Frames:	4
Frame Time:	0.0333333
0 91.7903 2.51682 0 0 -0 0 0 -0 0 0 -0 0 0 -0 0 0 -0 0 0 -0 0 0 -0 1.66051 0.0835086 5.75766 -0.0175111 0.895433 15.7816 7.95139e-016 -1.98785e-016 -0 5.46658e-016 -3.97569e-016 -0 5.96354e-016 0 -0 3.97569e-016 1.98785e-016 9.54166e-015 1.49089e-016 -3.97569e-016 -0 6.4605e-016 0 3.18055e-015 5.96354e-016 0 3.18055e-015 8.94531e-016 -1.98785e-016 6.36111e-015 6.4605e-016 0 3.18055e-015 5.96354e-016 0 3.18055e-015 8.94531e-016 -1.98785e-016 6.36111e-015 1.49089e-016 -3.97569e-016 -0 6.4605e-016 0 3.18055e-015 5.96354e-016 0 3.18055e-015 8.94531e-016 -1.98785e-016 6.36111e-015 6.4605e-016 0 3.18055e-015 5.96354e-016 0 3.18055e-015 8.94531e-016 -1.98785e-016 6.36111e-015 0 0 -0 -1.4496 0.0636048 -5.0245 -1.74811 1.20616 -16.8394 -1.19271e-015 1.98785e-016 -3.18055e-015 -3.97569e-016 1.98785e-016 -3.18055e-015 -2.98177e-016 1.98785e-016 -3.18055e-015 -2.98177e-016 3.97569e-016 -0 4.96962e-016 0 -6.36111e-015 -9.93923e-017 3.97569e-016 -0 -8.94531e-016 5.96354e-016 -0 -3.97569e-016 3.97569e-016 -0 -9.93923e-017 3.97569e-016 -0 -8.94531e-016 5.96354e-016 -0 -3.97569e-016 3.97569e-016 -0 4.96962e-016 0 -6.36111e-015 -9.93923e-017 3.97569e-016 -0 -8.94531e-016 5.96354e-016 -0 -3.97569e-016 3.97569e-016 -0 -9.93923e-017 3.97569e-016 -0 -8.94531e-016 5.96354e-016 -0 -3.97569e-016 3.97569e-016 -0 -4.66111 -0.998717 0.12318 0.00986924 1.54847 0.176523 4.65186 -0.572283 -0.254274 4.66111 -0.998765 -0.123176 -0.00986867 1.54869 -0.176537 -4.65186 -0.572453 0.25427 
45.4448 1.18402 -3.95475 -0 -26.8531 -0 -0.0114521 -3.20733 -0.140325 -0.0308589 -6.41463 -0.281958 -0.0308589 -6.41465 -0.281958 -2.51588e-008 19.2503 -2.12602e-006 3.47764e-008 9.51859 2.73744e-008 -15.0542 15.1166 3.62435 -71.6118 -9.91621 -38.7451 23.1036 29.845 -11.3982 -56.8584 30.8968 16.8628 -1.0147e-006 1.08603e-006 8.10822e-007 -3.18055e-015 1.59028e-015 -6.36111e-015 1.0147e-006 -1.08603e-006 -8.10822e-007 -3.18055e-015 4.77083e-015 -4.77083e-015 -1.0147e-006 1.08603e-006 8.10822e-007 4.41391e-032 1.59028e-015 -1.59028e-015 1.0147e-006 -1.08603e-006 -8.10822e-007 -1.0147e-006 1.08603e-006 8.10822e-007 4.41391e-032 1.59028e-015 -1.59028e-015 1.0147e-006 -1.08603e-006 -8.10822e-007 -3.18055e-015 4.77083e-015 -4.77083e-015 -1.0147e-006 1.08603e-006 8.10822e-007 4.41391e-032 1.59028e-015 -1.59028e-015 1.0147e-006 -1.08603e-006 -8.10822e-007 -1.0147e-006 1.08603e-006 8.10822e-007 4.41391e-032 1.59028e-015 -1.59028e-015 1.0147e-006 -1.08603e-006 -8.10822e-007 15.0713 14.8233 -3.36662 71.3818 -10.0006 39.1267 -25.1141 29.354 11.6604 57.1756 31.7948 -16.9211 3.18055e-015 -3.18055e-015 -1.59028e-015 5.00021e-007 5.56225e-007 -3.99551e-007 5.00021e-007 5.56225e-007 -3.99551e-007 3.18055e-015 -3.18055e-015 -1.59028e-015 3.18055e-015 -1.27222e-014 4.77083e-015 5.00021e-007 5.56225e-007 -3.99551e-007 5.00021e-007 5.56225e-007 -3.99551e-007 3.18055e-015 -1.27222e-014 4.77083e-015 5.00021e-007 5.56225e-007 -3.99551e-007 5.00021e-007 5.56225e-007 -3.99551e-007 3.18055e-015 -3.18055e-015 -1.59028e-015 3.18055e-015 -1.27222e-014 4.77083e-015 5.00021e-007 5.56225e-007 -3.99551e-007 5.00021e-007 5.56225e-007 -3.99551e-007 3.18055e-015 -1.27222e-014 4.77083e-015 5.00021e-007 5.56225e-007 -3.99551e-007 5.00021e-007 5.56225e-007 -3.99551e-007 59.7414 -43.9805 130.467 -1.47907 49.4978 2.43904 4.69288 23.4485 7.65621 -59.7475 -43.9671 -130.494 1.44204 49.4884 -2.43624 -4.69911 23.4412 -7.64692 
42.3107 7.0121 -4.16548 -0 -25.0011 -0 -0.0120594 -2.6593 -0.130306 -0.0302298 -5.31857 -0.261596 -0.0302298 -5.31857 -0.261595 -4.89561e-006 17.476 2.19811e-006 5.46793e-008 8.05573 1.37347e-007 -13.5188 12.8549 2.23013 -65.7679 -10.0331 -35.738 20.1515 28.5622 -8.38834 -51.8186 28.8556 14.0956 1.84769e-006 -2.29818e-006 -1.66236e-006 1.84769e-006 -2.29818e-006 -1.66236e-006 9.23843e-007 -1.14909e-006 -8.31178e-007 -1.76556e-031 -3.18055e-015 -3.18055e-015 1.84769e-006 -2.29818e-006 -1.66236e-006 1.84769e-006 -2.29818e-006 -1.66236e-006 9.23843e-007 -1.14909e-006 -8.31178e-007 1.84769e-006 -2.29818e-006 -1.66236e-006 1.84769e-006 -2.29818e-006 -1.66236e-006 9.23843e-007 -1.14909e-006 -8.31178e-007 -1.76556e-031 -3.18055e-015 -3.18055e-015 1.84769e-006 -2.29818e-006 -1.66236e-006 1.84769e-006 -2.29818e-006 -1.66236e-006 9.23843e-007 -1.14909e-006 -8.31178e-007 1.84769e-006 -2.29818e-006 -1.66236e-006 1.84769e-006 -2.29818e-006 -1.66236e-006 9.23843e-007 -1.14909e-006 -8.31178e-007 13.5634 12.6057 -1.97427 65.5605 -10.1212 36.144 -22.1364 28.1666 8.57467 52.0482 29.6503 -14.0782 4.5449e-007 5.86936e-007 -4.09149e-007 4.5449e-007 5.86936e-007 -4.09149e-007 4.5449e-007 5.86936e-007 -4.09149e-007 8.82781e-032 -3.18055e-015 1.59028e-015 4.5449e-007 5.86936e-007 -4.09149e-007 4.5449e-007 5.86936e-007 -4.09149e-007 4.5449e-007 5.86936e-007 -4.09149e-007 4.5449e-007 5.86936e-007 -4.09149e-007 4.5449e-007 5.86936e-007 -4.09149e-007 4.5449e-007 5.86936e-007 -4.09149e-007 8.82781e-032 -3.18055e-015 1.59028e-015 4.5449e-007 5.86936e-007 -4.09149e-007 4.5449e-007 5.86936e-007 -4.09149e-007 4.5449e-007 5.86936e-007 -4.09149e-007 4.5449e-007 5.86936e-007 -4.09149e-007 4.5449e-007 5.86936e-007 -4.09149e-007 4.5449e-007 5.86936e-007 -4.09149e-007 57.6423 -50.5175 126.527 -1.42652 45.9732 2.26701 4.76054 21.8527 7.0384 -57.6543 -50.5066 -126.559 1.39306 45.9676 -2.26653 -4.76558 21.846 -7.03005 
42.3106 7.00659 -4.32783 -0 -25.0011 -0 -0.0134295 -2.35063 -0.130109 -0.0322475 -4.70123 -0.261101 -0.0322475 -4.70122 -0.261101 -6.0064e-007 17.0571 2.47839e-006 -2.24012e-008 7.29937 1.01054e-007 -13.1357 11.7012 1.18577 -65.4818 -10.3872 -35.8565 19.8018 28.7829 -7.77682 -51.3745 28.5916 13.3122 6.36111e-015 -9.54166e-015 -1.59028e-015 -9.23107e-007 1.14997e-006 8.30683e-007 -8.82781e-031 -6.36111e-015 -7.95139e-015 6.36111e-015 -9.54166e-015 -1.59028e-015 2.22639e-014 2.54444e-014 1.43125e-014 -9.23107e-007 1.14997e-006 8.30683e-007 3.18055e-015 0 4.77083e-015 2.22639e-014 2.54444e-014 1.43125e-014 -9.23107e-007 1.14997e-006 8.30683e-007 3.18055e-015 0 4.77083e-015 6.36111e-015 -9.54166e-015 -1.59028e-015 2.22639e-014 2.54444e-014 1.43125e-014 -9.23107e-007 1.14997e-006 8.30683e-007 3.18055e-015 0 4.77083e-015 2.22639e-014 2.54444e-014 1.43125e-014 -9.23107e-007 1.14997e-006 8.30683e-007 3.18055e-015 0 4.77083e-015 13.2014 11.4752 -0.912649 65.2702 -10.4835 36.2628 -21.7843 28.41 7.96272 51.5764 29.3471 -13.2652 9.08216e-007 1.17475e-006 -8.17801e-007 -6.36111e-015 -3.18055e-015 -3.18055e-015 -6.36111e-015 -1.27222e-014 -3.18055e-015 1.59028e-014 0 -6.36111e-015 9.08216e-007 1.17475e-006 -8.17801e-007 9.54166e-015 -6.36111e-015 -6.36111e-015 -7.06225e-031 -6.36111e-015 -6.36111e-015 9.08216e-007 1.17475e-006 -8.17801e-007 9.54166e-015 -6.36111e-015 -6.36111e-015 -7.06225e-031 -6.36111e-015 -6.36111e-015 1.59028e-014 0 -6.36111e-015 9.08216e-007 1.17475e-006 -8.17801e-007 9.54166e-015 -6.36111e-015 -6.36111e-015 -7.06225e-031 -6.36111e-015 -6.36111e-015 9.08216e-007 1.17475e-006 -8.17801e-007 9.54166e-015 -6.36111e-015 -6.36111e-015 -7.06225e-031 -6.36111e-015 -6.36111e-015 57.575 -50.5508 126.457 -1.48427 45.5018 2.29751 4.76175 21.8326 7.0309 -57.5871 -50.5399 -126.489 1.45183 45.4987 -2.2994 -4.76683 21.826 -7.0226 
